<svg width="48" height="48" viewBox="0 0 48 48" fill="none" xmlns="http://www.w3.org/2000/svg">
<rect width="48" height="48" fill="#323238"/>
<path d="M34.2955 12.009L13.7187 12.0007C12.7758 12.0003 12.0095 12.7768 12.0091 13.7304L12.0007 34.2696C12.0003 35.2232 12.7661 36.0003 13.709 36.0007L34.2857 36.009C35.2286 36.0094 36.0003 35.233 36.0007 34.2794L36.0091 13.7401C36.0094 12.7865 35.2383 12.0094 34.2955 12.009ZM19.255 32.5744L15.6978 32.5729L15.7025 21.1194L19.265 21.1208L19.2603 32.5744L19.255 32.5744ZM17.4817 19.5558C16.3406 19.5553 15.4196 18.6282 15.42 17.4925C15.4205 16.3567 16.3423 15.4303 17.4834 15.4308C18.6191 15.4313 19.5455 16.3584 19.545 17.4941C19.5446 18.6352 18.6228 19.5563 17.4817 19.5558V19.5558ZM32.5889 32.5798L29.0318 32.5783L29.034 27.0069C29.0346 25.6783 29.0085 23.9694 27.1871 23.9687C25.3335 23.9679 25.049 25.4142 25.0484 26.9089L25.0461 32.5767L21.4889 32.5753L21.4936 21.1217L24.9061 21.1231L24.9054 22.6874L24.9536 22.6874C25.4308 21.7876 26.5937 20.8398 28.324 20.8406C31.924 20.842 32.5927 23.2155 32.5915 26.3012L32.5889 32.5798V32.5798Z" fill="white"/>
</svg>
