<svg width="15" height="12" viewBox="0 0 15 12" fill="none" xmlns="http://www.w3.org/2000/svg">
<path d="M14.6026 0.56504L11.7195 0.145203C11.6311 0.145203 11.5427 0.145205 11.5427 0.233371L10.3221 1.79936C10.2525 1.90152 10.2211 2.02492 10.2337 2.14783C10.2337 2.23599 10.1453 2.41233 10.0612 2.32416L9.09732 2.06386C8.92476 2.06386 8.74798 2.06386 8.67643 2.23599L4.74529 7.27404C4.65691 7.36221 4.56851 7.36221 4.39595 7.36221L2.9102 6.66528C2.84715 6.62577 2.77421 6.60482 2.69975 6.60482C2.6253 6.60482 2.55235 6.62577 2.4893 6.66528L1.66436 7.19427C1.60167 7.23475 1.52859 7.25629 1.45391 7.25629C1.37924 7.25629 1.30615 7.23475 1.24347 7.19427L0.894131 7.02214C0.83726 6.99651 0.775659 6.98293 0.713253 6.9823C0.650848 6.98167 0.588988 6.99398 0.531605 7.01846C0.474221 7.04293 0.422564 7.07904 0.37991 7.12448C0.337256 7.16992 0.304542 7.22371 0.283832 7.28244L0.0186679 8.49996C-0.0128117 8.62925 -0.00433159 8.76502 0.0429956 8.88941C0.0903229 9.0138 0.174283 9.12099 0.283832 9.1969L0.982515 9.61673L2.8134 10.7503L3.68885 11.2709C3.81175 11.3429 3.95457 11.3736 4.09627 11.3584C4.23797 11.3433 4.37106 11.2832 4.47592 11.1869L5.95747 9.87703C6.08504 9.80457 6.23266 9.77513 6.37836 9.79306L6.79925 10.0534C6.97182 10.1415 7.14859 10.1415 7.22014 9.9652L8.003 9.26827C8.05686 9.21419 8.12542 9.17703 8.20021 9.16136C8.27501 9.14569 8.35277 9.15221 8.42389 9.18011L9.5603 9.7049C9.64794 9.73356 9.74125 9.74051 9.83217 9.72515C9.9231 9.70978 10.0089 9.67257 10.0822 9.61673L10.6083 8.9198L14.5395 3.88175C14.712 3.61726 14.6236 3.26879 14.2743 3.26879L13.4493 3.08406C13.2726 3.08406 13.1884 2.82377 13.2726 2.66423L14.6699 1.01007C14.8635 0.833735 14.7752 0.56504 14.6026 0.56504Z" fill="white"/>
</svg>
