<svg width="18" height="22" viewBox="0 0 18 22" fill="none" xmlns="http://www.w3.org/2000/svg">
<path d="M17.4841 0.56504L14.601 0.145203C14.5126 0.145203 14.4242 0.145205 14.4242 0.233371L13.2036 1.79936C13.1339 1.90152 13.1026 2.02492 13.1152 2.14783C13.1152 2.23599 13.0268 2.41233 12.9426 2.32416L11.9788 2.06386C11.8062 2.06386 11.6294 2.06386 11.5579 2.23599L7.62676 7.27404C7.53838 7.36221 7.44998 7.36221 7.27742 7.36221L5.79167 6.66528C5.72862 6.62577 5.65567 6.60481 5.58122 6.60481C5.50677 6.60481 5.43382 6.62577 5.37077 6.66528L4.54583 7.19427C4.48314 7.23475 4.41006 7.25629 4.33538 7.25629C4.26071 7.25629 4.18762 7.23475 4.12494 7.19427L3.7756 7.02214C3.71873 6.99651 3.65713 6.98293 3.59472 6.9823C3.53232 6.98167 3.47046 6.99398 3.41307 7.01846C3.35569 7.04293 3.30403 7.07904 3.26138 7.12448C3.21873 7.16992 3.18601 7.22371 3.1653 7.28244L2.90014 8.49996C2.86866 8.62925 2.87714 8.76502 2.92447 8.88941C2.97179 9.0138 3.05575 9.12099 3.1653 9.1969L3.86398 9.61673L5.69487 10.7503L6.57032 11.2709C6.69322 11.3429 6.83604 11.3736 6.97774 11.3584C7.11944 11.3433 7.25253 11.2832 7.35739 11.1869L8.83894 9.87703C8.96651 9.80457 9.11413 9.77513 9.25983 9.79306L9.68072 10.0534C9.85329 10.1415 10.0301 10.1415 10.1016 9.9652L10.8845 9.26827C10.9383 9.21419 11.0069 9.17703 11.0817 9.16136C11.1565 9.14569 11.2342 9.15221 11.3054 9.1801L12.4418 9.7049C12.5294 9.73356 12.6227 9.74051 12.7136 9.72515C12.8046 9.70978 12.8904 9.67257 12.9637 9.61673L13.4898 8.9198L17.4209 3.88175C17.5935 3.61726 17.5051 3.26879 17.1558 3.26879L16.3308 3.08406C16.154 3.08406 16.0699 2.82377 16.154 2.66423L17.5514 1.01007C17.745 0.833735 17.6566 0.56504 17.4841 0.56504Z" fill="#3D3BB3"/>
<path d="M4.38166 10.7671C4.29327 10.6789 4.20911 10.7671 4.20911 10.8553L4.63 11.9846V12.2491L4.28065 13.727C4.27466 13.7748 4.2795 13.8234 4.29479 13.8692C4.31009 13.915 4.33545 13.9567 4.36903 13.9915L5.41707 14.7724C5.46541 14.8146 5.52747 14.8379 5.59173 14.8379C5.65598 14.8379 5.71806 14.8146 5.7664 14.7724L6.90282 13.8151C6.9368 13.7817 6.97795 13.7564 7.02314 13.7411C7.06834 13.7259 7.11642 13.721 7.16377 13.727L8.38857 13.5548C8.47274 13.5548 8.47274 13.4667 8.38857 13.3785L4.38166 10.7671Z" fill="#3D3BB3"/>
<path d="M4.03227 14.5119C4.01749 14.4911 3.99792 14.4741 3.97522 14.4624C3.95252 14.4507 3.92734 14.4446 3.90179 14.4446C3.87624 14.4446 3.85106 14.4507 3.82836 14.4624C3.80566 14.4741 3.78609 14.4911 3.77131 14.5119L2.89585 14.9317C2.88443 14.9317 2.87313 14.934 2.86264 14.9385C2.85214 14.943 2.84268 14.9495 2.8348 14.9578C2.82693 14.966 2.82081 14.9758 2.81683 14.9865C2.81286 14.9972 2.81111 15.0085 2.81168 15.0199L0.888199 19.7221H0.976583L1.39748 19.5499V19.6339L0.00012207 21.901C0.00012207 21.9892 0.000114362 21.9892 0.0842929 21.9892L4.97506 17.0225C5.06345 17.0225 5.06346 16.9344 5.06346 16.8462L5.15184 15.5405C5.15184 15.4523 5.15184 15.3684 5.06346 15.3684L4.03227 14.5119Z" fill="#3D3BB3"/>
</svg>
