<svg width="102" height="102" viewBox="0 0 102 102" fill="none" xmlns="http://www.w3.org/2000/svg">
<circle cx="51" cy="51" r="51" fill="#424242" fill-opacity="0.25"/>
<path d="M60.3824 40.565L57.4993 40.1452C57.4109 40.1452 57.3225 40.1452 57.3225 40.2334L56.1019 41.7994C56.0322 41.9015 56.0009 42.0249 56.0135 42.1478C56.0135 42.236 55.9251 42.4123 55.841 42.3242L54.8771 42.0639C54.7045 42.0639 54.5278 42.0639 54.4562 42.236L50.5251 47.274C50.4367 47.3622 50.3483 47.3622 50.1757 47.3622L48.69 46.6653C48.6269 46.6258 48.554 46.6048 48.4795 46.6048C48.4051 46.6048 48.3321 46.6258 48.2691 46.6653L47.4441 47.1943C47.3815 47.2348 47.3084 47.2563 47.2337 47.2563C47.159 47.2563 47.0859 47.2348 47.0233 47.1943L46.6739 47.0221C46.617 46.9965 46.5554 46.9829 46.493 46.9823C46.4306 46.9817 46.3688 46.994 46.3114 47.0185C46.254 47.0429 46.2023 47.079 46.1597 47.1245C46.117 47.1699 46.0843 47.2237 46.0636 47.2824L45.7985 48.5C45.767 48.6293 45.7755 48.765 45.8228 48.8894C45.8701 49.0138 45.9541 49.121 46.0636 49.1969L46.7623 49.6167L48.5932 50.7503L49.4686 51.2709C49.5915 51.3429 49.7344 51.3736 49.8761 51.3584C50.0178 51.3433 50.1508 51.2832 50.2557 51.1869L51.7373 49.877C51.8648 49.8046 52.0124 49.7751 52.1581 49.7931L52.579 50.0534C52.7516 50.1415 52.9284 50.1415 52.9999 49.9652L53.7828 49.2683C53.8366 49.2142 53.9052 49.177 53.98 49.1614C54.0548 49.1457 54.1326 49.1522 54.2037 49.1801L55.3401 49.7049C55.4277 49.7336 55.521 49.7405 55.612 49.7251C55.7029 49.7098 55.7887 49.6726 55.862 49.6167L56.3881 48.9198L60.3192 43.8818C60.4918 43.6173 60.4034 43.2688 60.0541 43.2688L59.2291 43.0841C59.0524 43.0841 58.9682 42.8238 59.0524 42.6642L60.4497 41.0101C60.6433 40.8337 60.5549 40.565 60.3824 40.565Z" fill="white"/>
<path d="M47.28 50.7671C47.1916 50.6789 47.1074 50.7671 47.1074 50.8553L47.5283 51.9846V52.2491L47.179 53.727C47.173 53.7748 47.1778 53.8234 47.1931 53.8692C47.2084 53.915 47.2338 53.9567 47.2674 53.9915L48.3154 54.7724C48.3637 54.8146 48.4258 54.8379 48.49 54.8379C48.5543 54.8379 48.6164 54.8146 48.6647 54.7724L49.8011 53.8151C49.8351 53.7817 49.8763 53.7564 49.9215 53.7411C49.9667 53.7259 50.0147 53.721 50.0621 53.727L51.2869 53.5548C51.3711 53.5548 51.3711 53.4667 51.2869 53.3785L47.28 50.7671Z" fill="white"/>
<path d="M46.9306 54.5119C46.9158 54.4911 46.8962 54.4741 46.8735 54.4624C46.8508 54.4507 46.8257 54.4446 46.8001 54.4446C46.7746 54.4446 46.7494 54.4507 46.7267 54.4624C46.704 54.4741 46.6844 54.4911 46.6696 54.5119L45.7942 54.9317C45.7827 54.9317 45.7714 54.934 45.761 54.9385C45.7505 54.943 45.741 54.9495 45.7331 54.9578C45.7252 54.966 45.7191 54.9758 45.7151 54.9865C45.7112 54.9972 45.7094 55.0085 45.71 55.0199L43.7865 59.7221H43.8749L44.2958 59.5499V59.6339L42.8984 61.901C42.8984 61.9892 42.8984 61.9892 42.9826 61.9892L47.8734 57.0225C47.9618 57.0225 47.9618 56.9344 47.9618 56.8462L48.0502 55.5405C48.0502 55.4523 48.0502 55.3684 47.9618 55.3684L46.9306 54.5119Z" fill="white"/>
<path d="M41.9976 91.0001L40.0615 87.3853L43.4287 85.0552L44.0768 85.9578L43.012 86.6757C42.8301 86.8062 42.6403 86.9254 42.4438 87.0326C42.2661 87.1334 42.0803 87.2191 41.8882 87.2887L45.5079 88.162L45.2595 89.1864L41.6315 88.3089C41.7267 88.4065 41.8153 88.5102 41.8966 88.6196C41.9766 88.7246 42.0523 88.8379 42.1281 88.9597L42.3596 89.3795L42.9741 90.5047L41.9976 91.0001Z" fill="#FFCD1E"/>
<path d="M26.1385 77.1875C26.7152 76.5283 27.6327 76.4611 28.4534 77.1875L30.137 78.6611L26.7699 82.4942L25.4314 81.2893C24.556 80.5252 24.2361 79.7233 24.8506 79.0179C24.983 78.8522 25.1613 78.7289 25.3633 78.6632C25.5652 78.5976 25.7821 78.5924 25.987 78.6485C25.8359 78.4261 25.7683 78.1577 25.796 77.8904C25.8237 77.6232 25.945 77.3743 26.1385 77.1875ZM27.3423 80.3866L26.6604 79.7946C26.2395 79.421 25.8776 79.316 25.6587 79.5679C25.4398 79.8198 25.5914 80.1515 26.0249 80.5252L26.7025 81.1171L27.3423 80.3866ZM26.7951 77.9012C26.4963 78.2454 26.6562 78.6653 27.1276 79.0767L27.9021 79.7485L28.7817 78.7451L28.0073 78.0733C27.5359 77.6619 27.0982 77.5527 26.7951 77.9012Z" fill="white"/>
<path d="M18.554 73.686L20.8773 71.9227C21.9464 71.1082 23.1712 71.125 23.9582 72.1536C24.7453 73.1822 24.4338 74.3662 23.3648 75.1765L21.0414 76.9398L20.4564 76.1757L22.8723 74.3368C23.0027 74.2576 23.115 74.152 23.2019 74.0268C23.2888 73.9015 23.3484 73.7595 23.3767 73.6099C23.4051 73.4602 23.4016 73.3063 23.3666 73.1581C23.3315 73.0098 23.2656 72.8706 23.1731 72.7494C23.0806 72.6282 22.9637 72.5277 22.8298 72.4545C22.6959 72.3813 22.5481 72.3369 22.396 72.3243C22.2438 72.3116 22.0907 72.331 21.9466 72.3812C21.8024 72.4314 21.6704 72.5112 21.5591 72.6155L19.139 74.4502L18.554 73.686Z" fill="white"/>
<path d="M20.949 67.7536L16.437 70.1257L15.9867 69.286L20.5071 66.9013L20.949 67.7536Z" fill="white"/>
<path d="M17.1734 61.2587L18.0909 60.9438L19.0758 63.7861L14.2482 65.4655L13.9325 64.5545L17.8384 63.211L17.1734 61.2587Z" fill="white"/>
<path d="M14.1936 53.9537C15.591 53.7606 16.8494 54.5625 17.0809 56.2376L17.3124 57.917L12.2617 58.6097L12.0344 56.9303C11.7987 55.209 12.8005 54.1426 14.1936 53.9537ZM14.3241 54.9067C14.1194 54.9251 13.9206 54.985 13.74 55.0827C13.5593 55.1805 13.4007 55.3142 13.2737 55.4754C13.1468 55.6366 13.0542 55.8221 13.0018 56.0203C12.9494 56.2185 12.9381 56.4253 12.9688 56.6281L13.0867 57.5097L16.2181 57.0899L16.0961 56.2124C16.0711 56.009 16.005 55.8128 15.9017 55.6357C15.7984 55.4586 15.6601 55.3043 15.4951 55.1822C15.3302 55.0601 15.142 54.9727 14.9422 54.9253C14.7423 54.878 14.5349 54.8716 14.3325 54.9067H14.3241Z" fill="white"/>
<path d="M12.7373 41.4046L13.6927 41.5935L13.4317 42.895L17.4849 43.7011L17.2955 44.6457L13.2423 43.8397L12.9814 45.137L12.0302 44.948L12.7373 41.4046Z" fill="white"/>
<path d="M15.5235 33.684L20.229 35.653L19.8545 36.5431L17.9478 35.7454L17.106 37.7438L19.0127 38.5415L18.6381 39.4274L13.9325 37.4583L14.3071 36.5683L16.2095 37.366L17.0513 35.3675L15.1489 34.5698L15.5235 33.684Z" fill="white"/>
<path d="M19.0001 29.6492L19.905 30.2622L20.9194 28.7675L21.7233 29.3091L20.709 30.8037L21.6139 31.4167L22.8345 29.624L23.6384 30.1656L21.8748 32.756L17.6659 29.9011L19.4252 27.3107L20.2291 27.8565L19.0001 29.6492Z" fill="white"/>
<path d="M29.1733 24.3046L26.0503 20.2784L28.5336 18.364L29.127 19.1281L27.4098 20.4547L28.0832 21.3196L29.5142 20.2112L30.1119 20.9795L28.6724 22.0921L29.9351 23.7211L29.1733 24.3046Z" fill="white"/>
<path d="M35.5708 14.367L36.8797 16.9658C37.4816 18.1624 37.2417 19.3589 36.0843 19.9425C34.9268 20.526 33.8156 20.0013 33.2138 18.8005L31.9048 16.2143L32.7676 15.7945L34.1313 18.4982C34.1965 18.6259 34.2863 18.7394 34.3955 18.8325C34.5048 18.9255 34.6313 18.9961 34.7679 19.0404C34.9045 19.0846 35.0485 19.1016 35.1916 19.0904C35.3348 19.0791 35.4744 19.0398 35.6023 18.9748C35.7303 18.9097 35.8441 18.8201 35.9374 18.7112C36.0307 18.6022 36.1015 18.476 36.1458 18.3398C36.1902 18.2035 36.2072 18.0599 36.1959 17.9171C36.1847 17.7743 36.1453 17.6351 36.08 17.5074L34.7164 14.7995L35.5708 14.367Z" fill="white"/>
<path d="M42.8144 11.9909L43.0711 12.9229L41.8084 13.2756L42.9069 17.2514L41.9726 17.5033L40.8782 13.5317L39.6156 13.8843L39.3546 12.9481L42.8144 11.9909Z" fill="white"/>
<path d="M50.8619 11L51.0724 13.9011C51.1692 15.2362 50.4831 16.248 49.191 16.3403C47.8989 16.4327 47.0865 15.53 46.9813 14.1908L46.7709 11.2939L47.7347 11.2225L47.9494 14.2453C47.9421 14.3994 47.9676 14.5533 48.0243 14.6969C48.081 14.8404 48.1675 14.9704 48.2782 15.0781C48.3889 15.1859 48.5213 15.269 48.6665 15.322C48.8118 15.375 48.9666 15.3967 49.1209 15.3856C49.2752 15.3746 49.4253 15.331 49.5615 15.2578C49.6977 15.1847 49.8167 15.0835 49.9108 14.9611C50.005 14.8387 50.072 14.6978 50.1075 14.5476C50.1431 14.3974 50.1463 14.2415 50.117 14.09L49.8981 11.0672L50.8619 11Z" fill="white"/>
<path d="M57.1247 16.5297L56.2114 14.6992L55.6347 14.6278L55.4201 16.3072L54.4604 16.1812L55.1128 11.1432L56.91 11.3741C58.219 11.542 58.7325 12.3271 58.5936 13.3053C58.5531 13.6618 58.3993 13.9959 58.1547 14.2588C57.9101 14.5217 57.5875 14.6996 57.2341 14.7664L58.2779 16.685L57.1247 16.5297ZM55.761 13.6664L56.7206 13.7881C56.8222 13.8101 56.9271 13.8117 57.0292 13.7926C57.1313 13.7736 57.2286 13.7343 57.3152 13.6772C57.4019 13.6201 57.4763 13.5462 57.5339 13.46C57.5915 13.3738 57.6313 13.277 57.6508 13.1752C57.664 13.0699 57.6545 12.9631 57.623 12.8618C57.5916 12.7604 57.5389 12.667 57.4684 12.5875C57.3979 12.5081 57.3113 12.4446 57.2143 12.4011C57.1173 12.3576 57.0122 12.3353 56.9058 12.3355L55.9462 12.2137L55.761 13.6664Z" fill="white"/>
<path d="M63.4928 13.7961L63.1519 14.8331L64.8692 15.3999L64.5661 16.3193L62.8489 15.7525L62.508 16.7895L64.5703 17.4697L64.2799 18.3891L61.3042 17.4067L62.8994 12.5744L65.8793 13.5526L65.5763 14.4762L63.4928 13.7961Z" fill="white"/>
<path d="M77.0329 18.6413L77.3107 22.7305L73.2659 23.4694L73.0471 22.3736L74.3097 22.1553C74.5412 22.1133 74.7643 22.0797 74.9748 22.0629C75.1778 22.0461 75.382 22.0461 75.585 22.0629L72.6388 19.779L73.287 18.9394L76.2332 21.2233C76.1857 21.0961 76.1477 20.9656 76.1196 20.8328C76.0874 20.6946 76.0649 20.5543 76.0522 20.413C76.0522 20.2744 76.0186 20.1149 76.0059 19.947L75.9091 18.6874L77.0329 18.6413Z" fill="#FFCD1E"/>
<path d="M83.8935 37.1558L84.9541 35.4093L84.71 34.8845L83.1695 35.5982L82.7487 34.725L87.3785 32.5838L88.1445 34.2212C88.7001 35.4135 88.3086 36.2658 87.4164 36.6814C87.0922 36.8375 86.7264 36.8859 86.3726 36.8194C86.0188 36.7529 85.6958 36.5751 85.4508 36.312L84.3817 38.218L83.8935 37.1558ZM85.5771 34.4773L85.9979 35.3505C86.0334 35.4482 86.0882 35.5378 86.159 35.614C86.2298 35.6902 86.3153 35.7514 86.4102 35.7941C86.5052 35.8368 86.6078 35.86 86.712 35.8624C86.8161 35.8648 86.9196 35.8464 87.0165 35.8082C87.1114 35.7624 87.1955 35.6971 87.2633 35.6166C87.331 35.536 87.3809 35.4421 87.4095 35.3409C87.4382 35.2397 87.445 35.1336 87.4295 35.0296C87.414 34.9256 87.3765 34.8261 87.3195 34.7376L86.8987 33.8643L85.5771 34.4773Z" fill="white"/>
<path d="M88.9651 45.2758C88.453 45.3877 87.9191 45.346 87.4307 45.1559C86.9423 44.9658 86.5213 44.6357 86.2206 44.2073C85.92 43.7789 85.7531 43.2713 85.7412 42.7485C85.7292 42.2257 85.8726 41.711 86.1534 41.2694C86.4341 40.8277 86.8396 40.4789 87.3188 40.2667C87.798 40.0545 88.3294 39.9886 88.8461 40.0771C89.3628 40.1657 89.8416 40.4048 90.2223 40.7644C90.603 41.1239 90.8685 41.5878 90.9853 42.0976C91.1397 42.7863 91.0136 43.5079 90.6348 44.1039C90.256 44.6998 89.6554 45.1214 88.9651 45.2758ZM88.7504 44.3353C89.0735 44.2582 89.3666 44.0875 89.5926 43.8446C89.8187 43.6018 89.9676 43.2976 90.0208 42.9705C90.0739 42.6433 90.0287 42.3078 89.8911 42.0062C89.7534 41.7046 89.5294 41.4503 89.2471 41.2755C88.9649 41.1006 88.6371 41.0129 88.305 41.0235C87.973 41.0341 87.6514 41.1425 87.381 41.335C87.1105 41.5275 86.9032 41.7955 86.7852 42.1052C86.6671 42.415 86.6435 42.7527 86.7175 43.0758C86.7661 43.293 86.8575 43.4984 86.9863 43.68C87.1152 43.8617 87.2789 44.0159 87.4681 44.1339C87.6572 44.2519 87.868 44.3312 88.0881 44.3672C88.3083 44.4032 88.5334 44.3952 88.7504 44.3437V44.3353Z" fill="white"/>
<path d="M88.1696 52.6186L87.2941 53.0006C86.8942 52.5503 86.6675 51.9731 86.6544 51.3716C86.6489 51.0215 86.7125 50.6738 86.8417 50.3482C86.9709 50.0227 87.1632 49.7257 87.4074 49.4742C87.6517 49.2228 87.9432 49.0218 88.2654 48.8827C88.5875 48.7436 88.934 48.6692 89.285 48.6637C89.6359 48.6582 89.9846 48.7217 90.311 48.8506C90.6373 48.9794 90.9351 49.1712 91.1872 49.4149C91.4392 49.6585 91.6407 49.9493 91.7802 50.2707C91.9196 50.592 91.9942 50.9376 91.9997 51.2877C92.0088 51.8878 91.8028 52.4714 91.4189 52.9334L90.5308 52.5808C90.8565 52.2428 91.0351 51.79 91.0274 51.3213C91.011 51.0491 90.9284 50.785 90.7867 50.5518C90.645 50.3186 90.4485 50.1234 90.2142 49.9829C89.9799 49.8425 89.7148 49.761 89.4419 49.7457C89.169 49.7303 88.8964 49.7814 88.6477 49.8947C88.3991 50.0079 88.1818 50.1799 88.0147 50.3956C87.8475 50.6114 87.7356 50.8645 87.6885 51.1331C87.6414 51.4017 87.6607 51.6777 87.7445 51.9373C87.8283 52.1968 87.9742 52.4321 88.1696 52.6228V52.6186Z" fill="white"/>
<path d="M85.6653 60.0833L85.9052 58.8867L88.4642 57.4467L86.2756 57.0269L86.465 56.0822L91.4694 57.0688L91.28 58.0135L89.2092 57.5936L90.9349 59.76L90.695 60.9523L88.7252 58.3577L85.6653 60.0833Z" fill="white"/>
<path d="M88.2115 65.3354L87.1972 64.9156L86.5111 66.595L85.6146 66.2297L86.2965 64.5504L85.2863 64.1305L84.4445 66.1331L83.5438 65.7679L84.7265 62.871L89.4532 64.7939L88.2662 67.6907L87.3697 67.3255L88.2115 65.3354Z" fill="white"/>
<path d="M84.4826 74.2696L83.6829 73.7322L84.4027 72.6196L80.9303 70.3861L81.4522 69.58L84.9246 71.8135L85.6485 70.701L86.465 71.2257L84.4826 74.2696Z" fill="white"/>
<path d="M76.6792 77.7963C76.0184 77.1665 75.9763 76.1631 76.9065 75.1975C77.1667 74.9148 77.4828 74.689 77.8348 74.5343C78.1869 74.3797 78.5673 74.2996 78.952 74.299L79.2298 75.2352C78.9279 75.2266 78.6273 75.2795 78.3465 75.3907C78.0657 75.5019 77.8106 75.669 77.5968 75.8818C77.1338 76.3646 77.0454 76.8138 77.3021 77.0615C77.5589 77.3092 77.9419 77.1707 78.4722 76.7635C79.6297 75.8776 80.362 75.8986 80.9176 76.4318C81.4732 76.965 81.5952 78.0272 80.7198 78.9508C80.2864 79.4161 79.702 79.7136 79.0699 79.7905L78.75 78.9214C79.2305 78.8611 79.676 78.6389 80.0127 78.2917C80.3704 77.9222 80.5767 77.4982 80.2821 77.2127C79.9874 76.9272 79.7349 77.0951 79.1372 77.536C78.2576 78.1699 77.4663 78.552 76.6792 77.7963Z" fill="white"/>
<path d="M74.8022 82.6578L74.1709 81.7678L72.6935 82.809L72.1338 82.0197L73.6111 80.9785L72.9798 80.0884L71.2036 81.3479L70.6438 80.5544L73.207 78.7491L76.1533 82.9013L73.59 84.7108L73.0303 83.9173L74.8022 82.6578Z" fill="white"/>
<path d="M65.353 84.3414L67.3102 83.4723L67.2597 82.4353L68.253 82.0155L68.4087 87.5196L67.609 87.8722L63.6232 84.0643L64.6123 83.6445L65.353 84.3414ZM66.0854 85.0761L67.4659 86.4532L67.3649 84.5093L66.0854 85.0761Z" fill="white"/>
<path d="M59.2964 90.4334L59.0691 89.4888L60.3612 89.1823L59.4058 85.1728L60.3444 84.9503L61.2998 88.9598L62.592 88.6533L62.8192 89.5937L59.2964 90.4334Z" fill="white"/>
</svg>
