<svg width="48" height="48" viewBox="0 0 48 48" fill="none" xmlns="http://www.w3.org/2000/svg">
<rect width="48" height="48" fill="#323238"/>
<path d="M33.1058 14.9309C30.6741 12.798 27.4357 11.625 23.9942 11.625C16.8906 11.625 11.1103 16.6828 11.1103 22.8984C11.1103 24.884 11.7022 26.8238 12.8281 28.5352L11 34.375L17.8308 32.8059C19.7112 33.7047 21.8295 34.177 23.9884 34.177H23.9942C31.092 34.177 37 29.1191 37 22.9035C37 19.8922 35.5375 17.0637 33.1058 14.9309ZM23.9942 32.2777C22.0674 32.2777 20.1812 31.8258 18.5388 30.9727L18.15 30.7695L14.0991 31.6988L15.1786 28.2406L14.9232 27.8852C13.8495 26.3922 13.2866 24.6707 13.2866 22.8984C13.2866 17.734 18.092 13.5293 24 13.5293C26.8612 13.5293 29.5482 14.5043 31.5679 16.2766C33.5875 18.0488 34.8295 20.4 34.8237 22.9035C34.8237 28.073 29.8964 32.2777 23.9942 32.2777ZM29.8674 25.2598C29.5482 25.1176 27.9638 24.4371 27.6679 24.3457C27.3719 24.2492 27.1571 24.2035 26.9424 24.4879C26.7277 24.7723 26.1125 25.402 25.921 25.5949C25.7353 25.7828 25.5437 25.8082 25.2246 25.666C23.3326 24.8383 22.0906 24.1883 20.8429 22.3145C20.5121 21.8168 21.1737 21.8523 21.7888 20.7758C21.8933 20.5879 21.8411 20.4254 21.7598 20.2832C21.6786 20.141 21.0344 18.7547 20.7674 18.191C20.5063 17.6426 20.2393 17.7188 20.042 17.7086C19.8562 17.6984 19.6415 17.6984 19.4268 17.6984C19.2121 17.6984 18.8638 17.7695 18.5679 18.0488C18.2719 18.3332 17.442 19.0137 17.442 20.4C17.442 21.7863 18.5969 23.127 18.7536 23.3148C18.9161 23.5027 21.0228 26.3465 24.2554 27.5703C26.2982 28.3422 27.0991 28.4082 28.1205 28.2762C28.7415 28.1949 30.0241 27.5957 30.2911 26.9355C30.558 26.2754 30.558 25.7117 30.4768 25.5949C30.4013 25.468 30.1866 25.3969 29.8674 25.2598Z" fill="white"/>
</svg>
